<svg width="50" height="65" viewBox="0 0 50 65" fill="none" xmlns="http://www.w3.org/2000/svg">
<path d="M49.5 24.375C49.5 27.048 48.5788 30.289 47.0564 33.8049C45.5378 37.3124 43.4392 41.0526 41.1252 44.7123C36.4978 52.031 31.0343 58.9887 27.6997 63.0575C26.2981 64.7566 23.7019 64.7566 22.3004 63.0575C18.9657 58.9887 13.5022 52.031 8.87476 44.7123C6.56083 41.0526 4.46223 37.3124 2.94358 33.8049C1.42121 30.289 0.5 27.048 0.5 24.375C0.5 11.206 11.462 0.5 25 0.5C38.5379 0.5 49.5 11.206 49.5 24.375ZM31.2416 18.2718C29.5841 16.6557 27.3387 15.75 25 15.75C22.6613 15.75 20.4159 16.6557 18.7584 18.2718C17.1005 19.8882 16.1667 22.0834 16.1667 24.375C16.1667 26.6666 17.1005 28.8618 18.7584 30.4782C20.4159 32.0943 22.6613 33 25 33C27.3387 33 29.5841 32.0943 31.2416 30.4782C32.8995 28.8618 33.8333 26.6666 33.8333 24.375C33.8333 22.0834 32.8995 19.8882 31.2416 18.2718Z" fill="#E84B1B" stroke="black"/>
</svg>
